<svg width="413" height="298" viewBox="0 0 413 298" fill="none" xmlns="http://www.w3.org/2000/svg">
<path fill-rule="evenodd" clip-rule="evenodd" d="M20 0C8.95431 0 0 8.95429 0 20V84.9821V132.5C0.000572525 135.431 0.000473746 137.16 0.000294008 140.305C0.000167164 142.524 0 145.449 0 150V185.55V248.372C0 259.418 8.95431 268.372 20 268.372H172.387L201.541 296.373C203.533 298.286 206.805 298.332 208.85 296.476L239.808 268.372H242.965H393C404.046 268.372 413 259.418 413 248.372V20C413 10.335 406.144 2.27125 397.031 0.406329C395.729 0.139911 394.381 0 393 0H234.715L213.655 20.7809C211.689 22.7204 208.418 22.8109 206.348 20.983L182.589 0H20Z" fill="url(#paint0_linear_2246_545)"/>
<defs>
<linearGradient id="paint0_linear_2246_545" x1="-80.2453" y1="-23.3247" x2="415.483" y2="43.5896" gradientUnits="userSpaceOnUse">
<stop offset="0.0851517" stop-color="#041080"/>
<stop offset="1" stop-color="#0926C0"/>
</linearGradient>
</defs>
</svg>
