<svg width="241" height="241" viewBox="0 0 241 241" fill="none" xmlns="http://www.w3.org/2000/svg">
<path d="M140.413 80.2362H46.8045C45.0312 80.2362 43.3305 79.5318 42.0766 78.2779C40.8226 77.0239 40.1182 75.3232 40.1182 73.5499V46.8045C40.1182 45.0312 40.8226 43.3305 42.0766 42.0766C43.3305 40.8226 45.0312 40.1182 46.8045 40.1182H140.413C142.187 40.1182 143.887 40.8226 145.141 42.0766C146.395 43.3305 147.1 45.0312 147.1 46.8045V73.5499C147.1 75.3232 146.395 77.0239 145.141 78.2779C143.887 79.5318 142.187 80.2362 140.413 80.2362ZM53.4909 66.8635H133.727V53.0897H53.4909V66.8635Z" fill="black"/>
<path d="M140.413 94.1436H46.8045C45.0312 94.1436 43.3305 94.848 42.0766 96.1019C40.8226 97.3559 40.1182 99.0566 40.1182 100.83V127.04C40.1182 128.814 40.8226 130.514 42.0766 131.768C43.3305 133.022 45.0312 133.727 46.8045 133.727H122.761L147.1 108.987V100.83C147.1 99.0566 146.395 97.3559 145.141 96.1019C143.887 94.848 142.187 94.1436 140.413 94.1436ZM133.727 120.354H53.4909V106.981H133.727V120.354Z" fill="black"/>
<path d="M73.9513 210.687V210.286L76.091 200.992H26.7457V26.7455H160.473V95.2805L173.845 82.6433V20.0591C173.845 18.2858 173.141 16.5851 171.887 15.3312C170.633 14.0773 168.932 13.3728 167.159 13.3728H20.0594C18.2861 13.3728 16.5854 14.0773 15.3314 15.3312C14.0775 16.5851 13.373 18.2858 13.373 20.0591V207.277C13.373 209.05 14.0775 210.751 15.3314 212.005C16.5854 213.259 18.2861 213.963 20.0594 213.963H73.5502C73.6053 212.863 73.7393 211.768 73.9513 210.687Z" fill="black"/>
<path d="M147.098 128.177L141.883 133.46C143.177 133.193 144.363 132.549 145.291 131.609C146.219 130.669 146.848 129.475 147.098 128.177Z" fill="black"/>
<path d="M40.1182 180.13C40.1182 181.903 40.8226 183.604 42.0766 184.858C43.3305 186.112 45.0312 186.817 46.8045 186.817H79.1664L81.1723 178.124L82.0416 174.447V174.112H53.4909V160.472H95.8823L109.255 147.1H46.8045C45.0312 147.1 43.3305 147.804 42.0766 149.058C40.8226 150.312 40.1182 152.013 40.1182 153.786V180.13Z" fill="black"/>
<path d="M223.927 111.462L201.394 88.9286C200.394 87.9258 199.206 87.1302 197.898 86.5874C196.59 86.0446 195.188 85.7651 193.772 85.7651C192.356 85.7651 190.953 86.0446 189.645 86.5874C188.337 87.1302 187.149 87.9258 186.149 88.9286L94.4796 181.133L86.924 213.295C86.6411 214.682 86.6348 216.112 86.9053 217.502C87.1758 218.892 87.7179 220.215 88.5005 221.395C89.2831 222.575 90.2908 223.589 91.466 224.379C92.6411 225.169 93.9606 225.719 95.3488 225.999C96.038 226.068 96.7324 226.068 97.4216 225.999C98.2408 226.132 99.0763 226.132 99.8955 225.999L132.324 218.844L223.927 127.041C224.928 126.046 225.722 124.864 226.264 123.562C226.806 122.259 227.085 120.862 227.085 119.452C227.085 118.041 226.806 116.644 226.264 115.342C225.722 114.039 224.928 112.857 223.927 111.863V111.462ZM125.504 206.675L101.032 212.091L106.983 187.82L175.719 118.348L194.574 137.204L125.504 206.675ZM202.13 129.648L183.274 110.793L193.906 100.295L212.895 119.285L202.13 129.648Z" fill="black"/>
</svg>
