<svg width="33" height="33" viewBox="0 0 33 33" fill="none" xmlns="http://www.w3.org/2000/svg">
<path fill-rule="evenodd" clip-rule="evenodd" d="M16.5 33C25.6127 33 33 25.6127 33 16.5C33 7.3873 25.6127 0 16.5 0C7.3873 0 0 7.3873 0 16.5C0 25.6127 7.3873 33 16.5 33ZM22.8852 19.9117C23.3621 20.1499 23.6209 20.3304 23.6616 20.453C23.6822 20.5011 23.6924 20.5725 23.6922 20.6682C23.6922 20.8521 23.6583 21.0921 23.59 21.3883C23.5219 21.6847 23.4506 21.9179 23.3754 22.0881C23.2324 22.4289 22.817 22.7899 22.1293 23.1712C21.4891 23.5185 20.8555 23.6922 20.2289 23.6922C20.0451 23.6922 19.8663 23.6801 19.6925 23.6566C19.5189 23.6326 19.3232 23.59 19.105 23.5286C18.8872 23.4673 18.7253 23.4178 18.6198 23.3803C18.5143 23.3429 18.3252 23.273 18.0528 23.1709C17.7804 23.0685 17.6136 23.0073 17.5523 22.987C16.8849 22.7484 16.2887 22.4658 15.7643 22.139C14.8924 21.6009 13.9917 20.867 13.0619 19.9374C12.1322 19.0077 11.3982 18.1068 10.8604 17.2351C10.5335 16.7106 10.2508 16.1147 10.0125 15.4472C9.99204 15.3859 9.93067 15.2191 9.82861 14.9467C9.72641 14.6742 9.65659 14.4852 9.6192 14.3797C9.58184 14.2743 9.53242 14.1124 9.47115 13.8945C9.40978 13.6765 9.3672 13.4807 9.34337 13.307C9.31953 13.1332 9.30762 12.9544 9.30762 12.7707C9.30762 12.1441 9.48128 11.5106 9.82865 10.8705C10.2101 10.1828 10.5711 9.76732 10.9116 9.62437C11.0819 9.54933 11.3152 9.47791 11.6115 9.40981C11.9078 9.34161 12.1478 9.30762 12.3318 9.30762C12.4271 9.30762 12.4987 9.31792 12.5464 9.33835C12.669 9.37908 12.8495 9.638 13.0877 10.1147C13.1627 10.2441 13.2648 10.428 13.3942 10.6663C13.5237 10.9046 13.6427 11.1209 13.7519 11.315C13.861 11.5091 13.9664 11.6913 14.0685 11.8615C14.0889 11.8888 14.1485 11.9739 14.2474 12.1169C14.3462 12.26 14.4194 12.3807 14.4671 12.4797C14.5147 12.5784 14.5385 12.6756 14.5385 12.7708C14.5385 12.907 14.4415 13.0772 14.2474 13.2816C14.0532 13.4858 13.8422 13.6732 13.6139 13.8433C13.3858 14.0135 13.1746 14.194 12.9805 14.3846C12.7864 14.5754 12.6893 14.7321 12.6893 14.8546C12.6893 14.916 12.7064 14.9926 12.7404 15.0845C12.7744 15.1764 12.8033 15.2463 12.8272 15.2939C12.851 15.3417 12.8987 15.4233 12.9703 15.5391C13.0417 15.6549 13.081 15.7196 13.0878 15.7332C13.6054 16.6664 14.1981 17.4665 14.8654 18.1341C15.533 18.8014 16.3333 19.3939 17.2664 19.9117C17.28 19.9185 17.3445 19.9577 17.4606 20.0292C17.5765 20.101 17.658 20.1485 17.7056 20.1725C17.7535 20.196 17.8234 20.2252 17.9152 20.2592C18.007 20.293 18.0837 20.3102 18.1452 20.3102C18.2676 20.3102 18.4244 20.2132 18.6152 20.019C18.8057 19.8248 18.9863 19.6139 19.1565 19.3856C19.3267 19.1572 19.5141 18.9463 19.7183 18.752C19.9226 18.5581 20.0927 18.4609 20.2289 18.4609C20.3243 18.4609 20.4214 18.4848 20.5201 18.5323C20.6191 18.5801 20.7398 18.6533 20.883 18.752C21.026 18.851 21.1111 18.9105 21.1383 18.9309C21.3085 19.033 21.4906 19.1385 21.685 19.2475C21.879 19.3565 22.0954 19.4757 22.3338 19.6052C22.5719 19.7346 22.756 19.8366 22.8852 19.9117Z" fill="white"/>
</svg>
