<svg width="1920" height="74" viewBox="0 0 1920 74" fill="none" xmlns="http://www.w3.org/2000/svg">
<path fill-rule="evenodd" clip-rule="evenodd" d="M1915.19 29.4555L1920 29V74H0.00012207V28.5445L4.81213 28.0891L9.62415 27.6339L14.4362 27.1791L19.2482 26.7247L24.0603 26.2709L28.8723 25.8177L33.6843 25.3654L38.4963 24.9139L43.3083 24.4634L48.1204 24.014L52.9324 23.5659L57.7445 23.1192L62.5565 22.6738L67.3685 22.2301L72.1805 21.788L76.9926 21.3477L81.8046 20.9092L86.6166 20.4728L91.4287 20.0385L96.2407 19.6064L101.053 19.1766L105.865 18.7492L110.677 18.3244L115.489 17.9022L120.301 17.4827L125.113 17.0661L129.925 16.6524L134.737 16.2418L139.549 15.8343L144.361 15.4301L149.173 15.0291L153.985 14.6317L158.797 14.2378L163.609 13.8475L168.421 13.4611L173.233 13.0784L178.045 12.6996L182.857 12.3248L187.669 11.9542L192.481 11.5878L197.293 11.2257L202.105 10.868L206.917 10.5147L211.729 10.166L216.541 9.82196L221.354 9.48267L226.166 9.14813L230.978 8.81854L235.79 8.4939L240.602 8.17432L245.414 7.85992L250.226 7.55072L255.038 7.24677L259.85 6.94824L264.662 6.65509L269.474 6.36749L274.286 6.08551L279.098 5.80914L283.91 5.53851L288.722 5.27368L293.534 5.01465L298.346 4.7616L303.158 4.51453L307.97 4.27344L312.782 4.03845L317.594 3.80969L322.406 3.5871L327.218 3.37079L332.03 3.16083L336.842 2.95721L341.654 2.76001L346.466 2.56934L351.278 2.38513L356.09 2.20752L360.902 2.0365L365.714 1.87213L370.526 1.71448L375.338 1.56354L380.15 1.41937L384.963 1.28198L389.775 1.15149L394.587 1.02783L399.399 0.911072L404.211 0.80127L409.023 0.698425L413.835 0.602539L418.647 0.513672L423.459 0.431824L428.271 0.357056L433.083 0.289307L437.895 0.228699L442.707 0.17511L447.519 0.128723L452.331 0.0894165L457.143 0.057251L461.955 0.0321655L466.767 0.0142822L471.579 0.00360107L476.391 0L481.203 0.00360107L486.015 0.0142822L490.827 0.0321655L495.639 0.057251L500.451 0.0894165L505.263 0.128723L510.075 0.17511L514.887 0.228699L519.699 0.289307L524.511 0.357056L529.323 0.431824L534.135 0.513672L538.947 0.602539L543.76 0.698425L548.572 0.80127L553.384 0.911072L558.196 1.02783L563.008 1.15149L567.82 1.28198L572.632 1.41937L577.444 1.56354L582.256 1.71448L587.068 1.87213L591.88 2.0365L596.692 2.20752L601.504 2.38513L606.316 2.56934L611.128 2.76001L615.94 2.95721L620.752 3.16083L625.564 3.37079L630.376 3.5871L635.188 3.80969L640 4.03845L644.812 4.27344L649.624 4.51453L654.436 4.7616L659.248 5.01465L664.06 5.27368L668.872 5.53851L673.684 5.80914L678.496 6.08551L683.308 6.36749L688.12 6.65509L692.932 6.94824L697.744 7.24677L702.556 7.55072L707.369 7.85992L712.181 8.17432L716.993 8.4939L721.805 8.81854L726.617 9.14813L731.429 9.48267L736.241 9.82196L741.053 10.166L745.865 10.5147L750.677 10.868L755.489 11.2257L760.301 11.5878L765.113 11.9542L769.925 12.3248L774.737 12.6996L779.549 13.0784L784.361 13.4611L789.173 13.8475L793.985 14.2378L798.797 14.6317L803.609 15.0291L808.421 15.4301L813.233 15.8343L818.045 16.2418L822.857 16.6524L827.669 17.0661L832.481 17.4827L837.293 17.9022L842.105 18.3244L846.917 18.7492L851.729 19.1766L856.541 19.6064L861.353 20.0385L866.165 20.4728L870.978 20.9092L875.79 21.3477L880.602 21.788L885.414 22.2301L890.226 22.6738L895.038 23.1192L899.85 23.5659L904.662 24.014L909.474 24.4634L914.286 24.9139L919.098 25.3654L923.91 25.8177L928.722 26.2709L933.534 26.7247L938.346 27.1791L943.158 27.6339L947.97 28.0891L952.782 28.5445L957.594 29L962.406 29.4555L967.218 29.9109L972.03 30.3661L976.842 30.8209L981.654 31.2753L986.466 31.7291L991.278 32.1823L996.09 32.6346L1000.9 33.0861L1005.71 33.5366L1010.53 33.986L1015.34 34.4341L1020.15 34.8808L1024.96 35.3262L1029.77 35.7699L1034.59 36.212L1039.4 36.6523L1044.21 37.0908L1049.02 37.5272L1053.83 37.9615L1058.65 38.3936L1063.46 38.8234L1068.27 39.2508L1073.08 39.6756L1077.89 40.0978L1082.71 40.5173L1087.52 40.9339L1092.33 41.3476L1097.14 41.7582L1101.95 42.1657L1106.77 42.5699L1111.58 42.9709L1116.39 43.3683L1121.2 43.7622L1126.02 44.1525L1130.83 44.5389L1135.64 44.9216L1140.45 45.3004L1145.26 45.6752L1150.08 46.0458L1154.89 46.4122L1159.7 46.7743L1164.51 47.132L1169.32 47.4853L1174.14 47.834L1178.95 48.178L1183.76 48.5173L1188.57 48.8519L1193.38 49.1815L1198.2 49.5061L1203.01 49.8257L1207.82 50.1401L1212.63 50.4493L1217.44 50.7532L1222.26 51.0518L1227.07 51.3449L1231.88 51.6325L1236.69 51.9145L1241.5 52.1909L1246.32 52.4615L1251.13 52.7263L1255.94 52.9854L1260.75 53.2384L1265.56 53.4855L1270.38 53.7266L1275.19 53.9615L1280 54.1903L1284.81 54.4129L1289.62 54.6292L1294.44 54.8392L1299.25 55.0428L1304.06 55.24L1308.87 55.4307L1313.68 55.6149L1318.5 55.7925L1323.31 55.9635L1328.12 56.1279L1332.93 56.2855L1337.74 56.4365L1342.56 56.5806L1347.37 56.718L1352.18 56.8485L1356.99 56.9722L1361.8 57.0889L1366.62 57.1987L1371.43 57.3016L1376.24 57.3975L1381.05 57.4863L1385.86 57.5682L1390.68 57.6429L1395.49 57.7107L1400.3 57.7713L1405.11 57.8249L1409.92 57.8713L1414.74 57.9106L1419.55 57.9427L1424.36 57.9678L1429.17 57.9857L1433.98 57.9964L1438.8 58L1443.61 57.9964L1448.42 57.9857L1453.23 57.9678L1458.05 57.9427L1462.86 57.9106L1467.67 57.8713L1472.48 57.8249L1477.29 57.7713L1482.11 57.7107L1486.92 57.6429L1491.73 57.5682L1496.54 57.4863L1501.35 57.3975L1506.17 57.3016L1510.98 57.1987L1515.79 57.0889L1520.6 56.9722L1525.41 56.8485L1530.23 56.718L1535.04 56.5806L1539.85 56.4365L1544.66 56.2855L1549.47 56.1279L1554.29 55.9635L1559.1 55.7925L1563.91 55.6149L1568.72 55.4307L1573.53 55.24L1578.35 55.0428L1583.16 54.8392L1587.97 54.6292L1592.78 54.4129L1597.59 54.1903L1602.41 53.9615L1607.22 53.7266L1612.03 53.4855L1616.84 53.2384L1621.65 52.9854L1626.47 52.7263L1631.28 52.4615L1636.09 52.1909L1640.9 51.9145L1645.71 51.6325L1650.53 51.3449L1655.34 51.0518L1660.15 50.7532L1664.96 50.4493L1669.77 50.1401L1674.59 49.8257L1679.4 49.5061L1684.21 49.1815L1689.02 48.8519L1693.83 48.5173L1698.65 48.178L1703.46 47.834L1708.27 47.4853L1713.08 47.132L1717.89 46.7743L1722.71 46.4122L1727.52 46.0458L1732.33 45.6752L1737.14 45.3004L1741.95 44.9216L1746.77 44.5389L1751.58 44.1525L1756.39 43.7622L1761.2 43.3683L1766.02 42.9709L1770.83 42.5699L1775.64 42.1657L1780.45 41.7582L1785.26 41.3476L1790.08 40.9339L1794.89 40.5173L1799.7 40.0978L1804.51 39.6756L1809.32 39.2508L1814.14 38.8234L1818.95 38.3936L1823.76 37.9615L1828.57 37.5272L1833.38 37.0908L1838.2 36.6523L1843.01 36.212L1847.82 35.7699L1852.63 35.3262L1857.44 34.8808L1862.26 34.4341L1867.07 33.986L1871.88 33.5366L1876.69 33.0861L1881.5 32.6346L1886.32 32.1823L1891.13 31.7291L1895.94 31.2753L1900.75 30.8209L1905.56 30.3661L1910.38 29.9109L1915.19 29.4555Z" fill="#F2F2F4"/>
</svg>
