<svg width="1920" height="74" viewBox="0 0 1920 74" fill="none" xmlns="http://www.w3.org/2000/svg">
<path fill-rule="evenodd" clip-rule="evenodd" d="M4.81214 44.5444L0.000124606 45L0.00012854 -4.57814e-05L1920 0.00012207L1920 45.4556L1915.19 45.911L1910.38 46.3662L1905.56 46.821L1900.75 47.2754L1895.94 47.7292L1891.13 48.1824L1886.32 48.6348L1881.5 49.0862L1876.69 49.5367L1871.88 49.9861L1867.07 50.4342L1862.26 50.8809L1857.44 51.3263L1852.63 51.77L1847.82 52.2122L1843.01 52.6525L1838.2 53.0909L1833.38 53.5273L1828.57 53.9616L1823.76 54.3937L1818.95 54.8235L1814.14 55.2509L1809.32 55.6757L1804.51 56.098L1799.7 56.5174L1794.89 56.934L1790.08 57.3477L1785.26 57.7584L1780.45 58.1658L1775.64 58.5701L1770.83 58.971L1766.02 59.3684L1761.2 59.7623L1756.39 60.1526L1751.58 60.539L1746.77 60.9217L1741.95 61.3005L1737.14 61.6753L1732.33 62.0459L1727.52 62.4123L1722.71 62.7744L1717.89 63.1321L1713.08 63.4854L1708.27 63.8341L1703.46 64.1781L1698.65 64.5174L1693.83 64.852L1689.02 65.1816L1684.21 65.5062L1679.4 65.8258L1674.59 66.1402L1669.77 66.4494L1664.96 66.7533L1660.15 67.0519L1655.34 67.345L1650.53 67.6326L1645.71 67.9146L1640.9 68.191L1636.09 68.4616L1631.28 68.7264L1626.47 68.9854L1621.65 69.2385L1616.84 69.4856L1612.03 69.7267L1607.22 69.9616L1602.41 70.1904L1597.59 70.413L1592.78 70.6293L1587.97 70.8393L1583.16 71.0429L1578.35 71.2401L1573.53 71.4308L1568.72 71.615L1563.91 71.7926L1559.1 71.9636L1554.29 72.128L1549.47 72.2856L1544.66 72.4366L1539.85 72.5807L1535.04 72.7181L1530.23 72.8486L1525.41 72.9723L1520.6 73.089L1515.79 73.1988L1510.98 73.3017L1506.17 73.3975L1501.35 73.4864L1496.54 73.5683L1491.73 73.643L1486.92 73.7108L1482.11 73.7714L1477.29 73.825L1472.48 73.8714L1467.67 73.9107L1462.86 73.9428L1458.05 73.9679L1453.23 73.9858L1448.42 73.9965L1443.61 74.0001L1438.8 73.9965L1433.98 73.9858L1429.17 73.9679L1424.36 73.9428L1419.55 73.9107L1414.74 73.8714L1409.92 73.825L1405.11 73.7714L1400.3 73.7108L1395.49 73.643L1390.68 73.5683L1385.86 73.4864L1381.05 73.3975L1376.24 73.3016L1371.43 73.1988L1366.62 73.089L1361.8 72.9722L1356.99 72.8486L1352.18 72.7181L1347.37 72.5807L1342.56 72.4365L1337.74 72.2856L1332.93 72.1279L1328.12 71.9636L1323.31 71.7926L1318.5 71.6149L1313.68 71.4307L1308.87 71.2401L1304.06 71.0429L1299.25 70.8392L1294.44 70.6293L1289.62 70.413L1284.81 70.1904L1280 69.9616L1275.19 69.7266L1270.38 69.4855L1265.56 69.2385L1260.75 68.9854L1255.94 68.7264L1251.13 68.4616L1246.32 68.1909L1241.5 67.9146L1236.69 67.6326L1231.88 67.345L1227.07 67.0518L1222.26 66.7533L1217.44 66.4493L1212.63 66.1401L1207.82 65.8257L1203.01 65.5062L1198.2 65.1815L1193.38 64.8519L1188.57 64.5174L1183.76 64.1781L1178.95 63.834L1174.14 63.4853L1169.32 63.1321L1164.51 62.7743L1159.7 62.4122L1154.89 62.0458L1150.08 61.6752L1145.26 61.3005L1140.45 60.9217L1135.64 60.539L1130.83 60.1525L1126.02 59.7623L1121.2 59.3683L1116.39 58.9709L1111.58 58.57L1106.77 58.1658L1101.95 57.7583L1097.14 57.3476L1092.33 56.9339L1087.52 56.5173L1082.71 56.0979L1077.89 55.6756L1073.08 55.2508L1068.27 54.8235L1063.46 54.3937L1058.65 53.9615L1053.83 53.5272L1049.02 53.0908L1044.21 52.6524L1039.4 52.2121L1034.59 51.7699L1029.77 51.3262L1024.96 50.8808L1020.15 50.4341L1015.34 49.986L1010.53 49.5367L1005.71 49.0862L1000.9 48.6347L996.09 48.1824L991.278 47.7292L986.466 47.2754L981.654 46.821L976.842 46.3661L972.03 45.9109L967.218 45.4555L962.406 45L957.594 44.5445L952.782 44.0891L947.97 43.6339L943.158 43.1791L938.346 42.7247L933.534 42.2709L928.722 41.8177L923.91 41.3654L919.098 40.9139L914.286 40.4634L909.474 40.0141L904.662 39.566L899.85 39.1192L895.038 38.6739L890.226 38.2301L885.414 37.788L880.602 37.3477L875.79 36.9093L870.978 36.4729L866.165 36.0385L861.353 35.6064L856.541 35.1766L851.729 34.7492L846.917 34.3244L842.105 33.9022L837.293 33.4828L832.481 33.0661L827.669 32.6524L822.857 32.2418L818.045 31.8343L813.233 31.4301L808.421 31.0291L803.609 30.6317L798.797 30.2378L793.985 29.8476L789.173 29.4611L784.361 29.0784L779.549 28.6996L774.737 28.3249L769.925 27.9542L765.113 27.5879L760.301 27.2257L755.489 26.868L750.677 26.5147L745.865 26.166L741.053 25.822L736.241 25.4827L731.429 25.1482L726.617 24.8186L721.805 24.4939L716.993 24.1743L712.181 23.8599L707.369 23.5507L702.557 23.2468L697.745 22.9483L692.932 22.6551L688.12 22.3675L683.308 22.0855L678.496 21.8092L673.684 21.5385L668.872 21.2737L664.06 21.0147L659.248 20.7616L654.436 20.5145L649.624 20.2734L644.812 20.0385L640 19.8097L635.188 19.5871L630.376 19.3708L625.564 19.1608L620.752 18.9572L615.94 18.76L611.128 18.5693L606.316 18.3851L601.504 18.2075L596.692 18.0365L591.88 17.8721L587.068 17.7145L582.256 17.5635L577.444 17.4194L572.632 17.282L567.82 17.1515L563.008 17.0278L558.196 16.9111L553.384 16.8013L548.572 16.6984L543.76 16.6025L538.947 16.5137L534.135 16.4318L529.323 16.3571L524.511 16.2893L519.699 16.2287L514.887 16.1751L510.075 16.1287L505.263 16.0894L500.451 16.0572L495.639 16.0322L490.827 16.0143L486.015 16.0036L481.203 16L476.391 16.0036L471.579 16.0143L466.767 16.0322L461.955 16.0572L457.143 16.0894L452.331 16.1287L447.519 16.1751L442.707 16.2287L437.895 16.2893L433.083 16.357L428.271 16.4318L423.459 16.5137L418.647 16.6025L413.835 16.6984L409.023 16.8013L404.211 16.9111L399.399 17.0278L394.587 17.1515L389.775 17.282L384.963 17.4194L380.151 17.5635L375.339 17.7145L370.526 17.8721L365.714 18.0365L360.902 18.2075L356.09 18.3851L351.278 18.5693L346.466 18.76L341.654 18.9572L336.842 19.1608L332.03 19.3708L327.218 19.5871L322.406 19.8097L317.594 20.0384L312.782 20.2734L307.97 20.5145L303.158 20.7616L298.346 21.0146L293.534 21.2737L288.722 21.5385L283.91 21.8091L279.098 22.0855L274.286 22.3675L269.474 22.6551L264.662 22.9482L259.85 23.2467L255.038 23.5507L250.226 23.8599L245.414 24.1743L240.602 24.4939L235.79 24.8185L230.978 25.1481L226.166 25.4826L221.354 25.8219L216.542 26.166L211.729 26.5147L206.917 26.868L202.105 27.2257L197.293 27.5878L192.481 27.9542L187.669 28.3248L182.857 28.6996L178.045 29.0783L173.233 29.461L168.421 29.8475L163.609 30.2378L158.797 30.6317L153.985 31.0291L149.173 31.43L144.361 31.8343L139.549 32.2417L134.737 32.6524L129.925 33.0661L125.113 33.4827L120.301 33.9021L115.489 34.3244L110.677 34.7492L105.865 35.1765L101.053 35.6063L96.2407 36.0385L91.4287 36.4728L86.6167 36.9092L81.8046 37.3476L76.9926 37.7879L72.1805 38.2301L67.3685 38.6738L62.5565 39.1192L57.7445 39.5659L52.9325 40.014L48.1205 40.4633L43.3084 40.9138L38.4963 41.3653L33.6843 41.8176L28.8723 42.2708L24.0603 42.7246L19.2483 43.179L14.4362 43.6339L9.62415 44.0891L4.81214 44.5444Z" fill="#F2F2F4"/>
</svg>
